#!OML:ASF F:\VICON\USERDATA\INSTALL\rory3\rory3.ASF
:FULLY-SPECIFIED
:DEGREES
1961
root 13.5747 17.8798 -10.1402 -1.08625 127.658 -363.593
lowerback 9.27068 -0.246368 0.271266
upperback -0.00751761 -0.198869 1.26929
thorax -5.20828 -0.0751396 1.19586
lowerneck -15.8305 -3.7468 -11.5471
upperneck 40.5769 0.511687 1.99927
head 17.8366 -0.403781 3.37751
rclavicle -3.598e-014 7.15625e-015
rhumerus -40.0681 -11.3436 -74.2322
rradius 33.2645
rwrist 2.03458
rhand -17.8966 8.82324
rfingers 7.12502
rthumb 8.37016 -20.9909
lclavicle -3.598e-014 7.15625e-015
lhumerus -35.5146 12.3871 78.5557
lradius 35.3637
lwrist -2.98116
lhand -20.2085 28.572
lfingers 7.12502
lthumb 6.13852 58.463
rfemur -16.6422 -14.2521 20.1239
rtibia 37.2042
rfoot -21.1033 -24.9303
rtoes 24.1783
lfemur -7.04695 1.43098 -24.0773
ltibia 23.2216
lfoot -13.0774 5.60829
ltoes -10.0846
1962
root 13.5405 17.883 -10.1174 -0.95169 128.999 -363.412
lowerback 9.53535 -0.296217 0.264132
upperback -0.0624451 -0.259587 1.30342
thorax -5.41365 -0.103294 1.24648
lowerneck -15.9048 -3.72792 -11.2946
upperneck 40.6262 0.606046 1.76834
head 17.8759 -0.347579 3.25002
rclavicle -4.23411e-014 2.78299e-014
rhumerus -40.1824 -11.2686 -74.4444
rradius 33.4693
rwrist 1.89976
rhand -18.0509 8.72833
rfingers 7.12502
rthumb 8.22118 -21.0917
lclavicle -4.23411e-014 2.78299e-014
lhumerus -35.6971 12.6428 78.583
lradius 35.3973
lwrist -3.10897
lhand -20.4133 28.5102
lfingers 7.12502
lthumb 5.94079 58.4069
rfemur -16.7316 -14.4987 20.1876
rtibia 37.4052
rfoot -21.2408 -25.5378
rtoes 25.1589
lfemur -7.35471 0.843575 -23.961
ltibia 23.3448
lfoot -12.9595 4.6569
ltoes -10.7202
1963
root 13.5089 17.876 -10.0956 -1.01979 130.299 -363.468
lowerback 9.7361 -0.31135 0.179057
upperback -0.0531129 -0.291091 1.23121
thorax -5.51619 -0.117036 1.22516
lowerneck -15.8638 -3.73866 -11.1938
upperneck 40.6177 0.576159 1.78862
head 17.8603 -0.328262 3.23925
rclavicle -8.68689e-014 3.18055e-015
rhumerus -40.1648 -11.7568 -74.6
rradius 33.6095
rwrist 1.9971
rhand -18.2965 8.26793
rfingers 7.12502
rthumb 7.98419 -21.5613
lclavicle -8.68689e-014 3.18055e-015
lhumerus -35.719 12.6791 78.6372
lradius 35.3053
lwrist -3.08228
lhand -20.0202 28.5843
lfingers 7.12502
lthumb 6.32033 58.47
rfemur -16.9137 -15.0734 20.1178
rtibia 37.6356
rfoot -20.4937 -26.4097
rtoes 23.6524
lfemur -7.63227 0.423603 -24.0085
ltibia 23.4462
lfoot -12.8294 3.68534
ltoes -12.1256
1964
root 13.4763 17.8611 -10.0721 -1.18618 131.484 -363.721
lowerback 9.81511 -0.280407 -0.0329108
upperback 0.0211219 -0.279028 1.13403
thorax -5.4823 -0.106695 1.24145
lowerneck -15.8058 -3.74968 -11.265
upperneck 40.5614 0.52046 1.98338
head 17.8148 -0.322573 3.33251
rclavicle 2.88238e-015 3.18055e-015
rhumerus -39.9519 -12.3207 -74.6942
rradius 33.6062
rwrist 2.34406
rhand -18.4566 7.91985
rfingers 7.12502
rthumb 7.82969 -21.9152
lclavicle 2.88238e-015 3.18055e-015
lhumerus -35.6086 12.734 78.7929
lradius 35.1496
lwrist -3.01119
lhand -20.2731 28.612
lfingers 7.12502
lthumb 6.07615 58.5048
rfemur -17.3159 -15.5903 19.9974
rtibia 37.8762
rfoot -18.2881 -27.9656
rtoes 18.3666
lfemur -7.96775 0.159355 -24.1863
ltibia 23.5359
lfoot -12.8709 2.63159
ltoes -11.9644
1965
root 13.4444 17.8743 -10.0497 -1.42798 132.463 -364.115
lowerback 9.84988 -0.16712 -0.316607
upperback 0.116084 -0.167972 1.00324
thorax -5.404 -0.0465854 1.24839
lowerneck -15.7542 -3.7553 -11.1156
upperneck 40.4159 0.501169 1.8842
head 17.7171 -0.308936 3.25127
rclavicle -9.26337e-014 1.59028e-015
rhumerus -39.7232 -12.5043 -74.9691
rradius 33.6726
rwrist 2.16868
rhand -18.4855 7.69873
rfingers 7.12502
rthumb 7.8018 -22.1373
lclavicle -9.26337e-014 1.59028e-015
lhumerus -35.4158 12.5831 79.0249
lradius 34.9156
lwrist -2.70823
lhand -21.2877 28.2862
lfingers 7.12502
lthumb 5.09657 58.2049
rfemur -17.5947 -15.425 19.6275
rtibia 38.2229
rfoot -18.4324 -28.197
rtoes 19.4033
lfemur -8.24242 0.159552 -24.4693
ltibia 23.4997
lfoot -12.9133 1.44045
ltoes -11.0655
1966
root 13.4142 17.8775 -10.0284 -1.56146 133.258 -364.395
lowerback 9.87569 -0.0270918 -0.544066
upperback 0.169069 -0.0139194 0.891821
thorax -5.36649 0.0334475 1.23804
lowerneck -15.9359 -3.7492 -10.8283
upperneck 40.4427 0.588322 1.59798
head 17.7726 -0.262707 3.08968
rclavicle -6.38099e-014 2.38542e-015
rhumerus -39.6155 -12.6064 -75.2831
rradius 33.8494
rwrist 1.99662
rhand -18.5926 7.75838
rfingers 7.12502
rthumb 7.69838 -22.0815
lclavicle -6.38099e-014 2.38542e-015
lhumerus -35.3566 12.5119 79.1127
lradius 34.7133
lwrist -2.65944
lhand -21.485 28.1682
lfingers 7.12502
lthumb 4.90605 58.0914
rfemur -17.8871 -15.0421 19.3375
rtibia 38.5873
rfoot -18.2248 -28.3223
rtoes 19.787
lfemur -8.45423 0.326785 -24.6907
ltibia 23.3665
lfoot -12.9285 0.414419
ltoes -10.9775
1967
root 13.3901 17.8795 -10.0046 -1.64425 134.048 -364.502
lowerback 9.9593 0.113036 -0.741315
upperback 0.239715 0.148483 0.840385
thorax -5.34385 0.118206 1.27215
lowerneck -16.2565 -3.75662 -10.6993
upperneck 40.6351 0.656887 1.55038
head 17.9626 -0.218819 3.07335
rclavicle 9.24349e-015 2.38542e-014
rhumerus -39.571 -12.9619 -75.4511
rradius 34.0663
rwrist 2.23272
rhand -18.7209 7.63207
rfingers 7.12502
rthumb 7.57459 -22.2123
lclavicle 9.24349e-015 2.38542e-014
lhumerus -35.3517 12.5361 79.1513
lradius 34.6015
lwrist -2.70414
lhand -21.1658 28.2283
lfingers 7.12502
lthumb 5.21424 58.1441
rfemur -18.0465 -14.5665 19.1637
rtibia 38.9503
rfoot -17.6802 -28.3475
rtoes 19.3564
lfemur -8.48592 0.207404 -24.7553
ltibia 23.1294
lfoot -12.8781 -0.451367
ltoes -10.3407
1968
root 13.3652 17.8797 -9.97941 -1.71334 134.914 -364.47
lowerback 10.1168 0.262405 -0.7764
upperback 0.354913 0.343566 0.791166
thorax -5.3167 0.215651 1.21197
lowerneck -16.1977 -3.85003 -10.9369
upperneck 40.6269 0.490631 1.87213
head 17.9572 -0.265894 3.23718
rclavicle 7.20594e-014 7.95139e-016
rhumerus -39.4191 -13.5799 -75.5178
rradius 34.1136
rwrist 2.58757
rhand -18.5259 7.60188
rfingers 7.12502
rthumb 7.76276 -22.2356
lclavicle 7.20594e-014 7.95139e-016
lhumerus -35.3025 12.5506 79.2024
lradius 34.5663
lwrist -3.02865
lhand -20.9433 28.3179
lfingers 7.12502
lthumb 5.4291 58.2284
rfemur -18.0536 -14.1314 19.0474
rtibia 39.2
rfoot -16.6744 -28.0216
rtoes 16.6817
lfemur -8.47982 -0.0720017 -24.7259
ltibia 22.992
lfoot -12.8069 -1.17324
ltoes -11.1035
1969
root 13.3413 17.879 -9.95243 -1.75519 135.682 -364.448
lowerback 10.2802 0.445978 -0.841187
upperback 0.432986 0.580752 0.759755
thorax -5.33321 0.334835 1.18035
lowerneck -15.7965 -3.89156 -11.1208
upperneck 40.3598 0.368566 2.04331
head 17.7091 -0.297836 3.31291
rclavicle -2.03754e-014 -6.36111e-015
rhumerus -39.3431 -13.9093 -75.6482
rradius 34.282
rwrist 2.58664
rhand -18.3173 7.89547
rfingers 7.12502
rthumb 7.9641 -21.9345
lclavicle -2.03754e-014 -6.36111e-015
lhumerus -35.3165 12.4497 79.3221
lradius 34.5549
lwrist -3.17153
lhand -20.53 28.4505
lfingers 7.12502
lthumb 5.82812 58.3503
rfemur -18.0143 -13.3351 18.8701
rtibia 39.3289
rfoot -16.2465 -26.989
rtoes 14.5222
lfemur -8.57025 -0.226827 -24.6963
ltibia 22.9212
lfoot -12.7014 -1.98611
ltoes -10.8976
1970
root 13.3208 17.8827 -9.9284 -1.70402 136.358 -364.359
lowerback 10.3508 0.622101 -0.903159
upperback 0.495464 0.810463 0.772403
thorax -5.31458 0.450371 1.19418
lowerneck -15.4786 -3.83433 -10.8757
upperneck 40.0857 0.471869 1.70848
head 17.4606 -0.243091 3.1213
rclavicle -5.81445e-014 1.74931e-014
rhumerus -39.3441 -13.6293 -76.0077
rradius 34.7553
rwrist 2.07343
rhand -18.1853 7.78652
rfingers 7.12502
rthumb 8.09146 -22.0386
lclavicle -5.81445e-014 1.74931e-014
lhumerus -35.3388 12.1833 79.5456
lradius 34.4682
lwrist -2.90684
lhand -20.5425 28.6309
lfingers 7.12502
lthumb 5.81607 58.531
rfemur -17.9346 -12.2012 18.684
rtibia 39.4033
rfoot -16.1831 -25.3626
rtoes 13.352
lfemur -8.68532 -0.419616 -24.6201
ltibia 22.8548
lfoot -12.5113 -2.73769
ltoes -9.48252
1971
root 13.3022 17.889 -9.90257 -1.58906 137.108 -364.104
lowerback 10.4107 0.717193 -0.801715
upperback 0.634071 0.953936 0.77629
thorax -5.20518 0.519876 1.11969
lowerneck -15.5094 -3.83605 -10.6052
upperneck 40.0192 0.544135 1.36599
head 17.4264 -0.21046 2.92927
rclavicle 2.15681e-014 -1.90833e-014
rhumerus -39.0475 -13.4189 -76.5014
rradius 34.9967
rwrist 1.62469
rhand -18.0776 7.77527
rfingers 7.12502
rthumb 8.1954 -22.0458
lclavicle 2.15681e-014 -1.90833e-014
lhumerus -35.2704 11.8297 79.6735
lradius 34.3632
lwrist -2.74809
lhand -20.6888 28.5416
lfingers 7.12502
lthumb 5.67482 58.4456
rfemur -17.7838 -11.0527 18.6352
rtibia 39.4509
rfoot -15.4258 -23.56
rtoes 8.95158
lfemur -8.73516 -0.5392 -24.4206
ltibia 22.7442
lfoot -12.3629 -3.47708
ltoes -8.39508
